<?xml version="1.0" encoding="UTF-8" standalone="no"?>
<!DOCTYPE svg PUBLIC "-//W3C//DTD SVG 1.1//EN" "http://www.w3.org/Graphics/SVG/1.1/DTD/svg11.dtd">
<svg width="100%" height="100%" viewBox="0 0 2560 1440" version="1.1" xmlns="http://www.w3.org/2000/svg" xmlns:xlink="http://www.w3.org/1999/xlink" xml:space="preserve" xmlns:serif="http://www.serif.com/" style="fill-rule:evenodd;clip-rule:evenodd;stroke-linejoin:round;stroke-miterlimit:2;">
    <g transform="matrix(1.28214,0.384862,-0.401171,1.33648,2065.98,739.507)">
        <g transform="matrix(1,0,0,1,-256,-256)">
            <path d="M389.209,207.832L246.828,207.832L276.07,22.883C278.715,5.426 272.618,2.993 262.522,17.479L109.043,245.935C98.947,260.421 105.132,272.275 122.79,272.275L241.964,272.275L207.86,489.118C205.214,506.575 211.311,509.006 221.407,494.52L402.956,234.17C413.053,219.683 406.866,207.832 389.209,207.832Z" style="fill:rgb(255,215,130);fill-rule:nonzero;"/>
            <path d="M274.043,247.811C233.588,242.803 209.6,246.312 171.866,246.298C154.209,246.298 148.023,234.445 158.119,219.958L271.624,51.005L276.07,22.883C278.715,5.426 272.618,2.993 262.522,17.479L109.043,245.935C98.947,260.421 105.132,272.275 122.79,272.275L241.964,272.275L207.86,489.118C205.214,506.575 211.311,509.006 221.407,494.52L235.434,474.406C234.317,472.994 233.199,471.417 232.081,469.616C232.08,469.615 285.65,249.248 274.043,247.811Z" style="fill:rgb(255,195,110);fill-rule:nonzero;"/>
            <path d="M413.577,211.869C411.232,207.376 404.948,199.839 389.21,199.839L256.184,199.839L283.972,24.08C284.698,19.29 286.906,4.715 277.034,0.778C267.165,-3.159 258.734,8.935 255.964,12.909C255.938,12.947 255.912,12.984 255.887,13.022L102.445,241.424C93.495,254.305 96.082,263.749 98.424,268.235C100.77,272.728 107.053,280.266 122.792,280.266L232.617,280.266L199.957,487.92C199.231,492.709 197.023,507.284 206.894,511.221C208.247,511.76 209.57,511.998 210.858,511.998C218.968,511.998 225.575,502.519 227.965,499.09L409.515,238.737C418.512,225.828 415.921,216.363 413.577,211.869ZM396.401,229.598L216.102,488.153L249.859,273.517C250.222,271.209 249.557,268.857 248.039,267.081C246.52,265.305 244.3,264.282 241.963,264.282L122.791,264.282C117.611,264.282 113.704,262.963 112.596,260.839C111.487,258.716 112.639,254.756 115.601,250.506C115.627,250.468 115.653,250.431 115.679,250.393L267.81,23.94L238.933,206.583C238.568,208.893 239.232,211.246 240.75,213.023C242.269,214.8 244.49,215.825 246.827,215.825L389.208,215.825C395.401,215.825 398.535,217.603 399.403,219.267C400.273,220.93 399.94,224.519 396.401,229.598ZM237.323,123.749L228.664,174.8C228.003,178.7 224.621,181.458 220.793,181.458C220.349,181.458 219.899,181.421 219.446,181.344C215.094,180.606 212.164,176.479 212.903,172.127L221.562,121.076C222.3,116.724 226.427,113.79 230.779,114.533C235.132,115.271 238.062,119.397 237.323,123.749ZM333.55,291.451L281.244,366.498C279.69,368.727 277.206,369.921 274.68,369.921C273.102,369.921 271.509,369.455 270.117,368.484C266.495,365.96 265.606,360.978 268.13,357.357L320.436,282.31C322.96,278.688 327.942,277.798 331.563,280.323C335.186,282.848 336.075,287.831 333.55,291.451ZM360.662,252.553L350,267.851C348.446,270.08 345.962,271.274 343.436,271.274C341.857,271.274 340.265,270.808 338.872,269.837C335.251,267.313 334.361,262.331 336.886,258.71L347.549,243.411C350.073,239.789 355.055,238.898 358.676,241.424C362.297,243.949 363.186,248.931 360.662,252.553Z" style="fill-rule:nonzero;"/>
        </g>
    </g>
    <g transform="matrix(1.9522,0,0,1.9522,-1707.08,-150.616)">
        <text x="1008.18px" y="568.369px" style="font-family:'Arial-BoldMT', 'Arial', sans-serif;font-weight:700;font-size:288px;">stack</text>
    </g>
</svg>
